<?xml version="1.0" encoding="iso-8859-1"?>
<!-- Generator: Adobe Illustrator 18.0.0, SVG Export Plug-In . SVG Version: 6.00 Build 0)  -->
<!DOCTYPE svg PUBLIC "-//W3C//DTD SVG 1.1//EN" "http://www.w3.org/Graphics/SVG/1.1/DTD/svg11.dtd">
<svg version="1.1" id="Capa_1" xmlns="http://www.w3.org/2000/svg" xmlns:xlink="http://www.w3.org/1999/xlink" x="0px" y="0px"
	 viewBox="0 0 229.888 229.888" style="enable-background:new 0 0 229.888 229.888;" xml:space="preserve">
<path d="M224.169,39.647c-3.117-3.117-7.103-5.05-11.41-5.57c-0.511-4.17-2.362-8.205-5.555-11.399
	c-3.118-3.117-7.105-5.05-11.415-5.57c-0.511-4.169-2.362-8.205-5.557-11.399C186.551,2.027,181.656,0,176.449,0
	c-5.207,0-10.102,2.026-13.785,5.707c-0.06,0.059-0.117,0.119-0.175,0.181c-9.965,10.076-13.991,23.853-12.08,36.922
	c-5.238-1.61-10.744-2.45-16.38-2.45c-0.217,0-0.432,0.014-0.648,0.016c-0.027,0-0.054-0.004-0.081-0.004
	c-0.078,0-0.153,0.009-0.23,0.012c-14.462,0.244-28.025,5.977-38.28,16.231L56.605,94.8c-10.48,10.482-16.252,24.417-16.251,39.237
	c0,5.624,0.836,11.118,2.44,16.347c-2.078-0.301-4.192-0.457-6.33-0.457c-11.58,0-22.471,4.496-30.677,12.662
	c-0.026,0.026-0.054,0.053-0.08,0.079c-7.601,7.599-7.601,19.968,0.001,27.573c3.116,3.117,7.102,5.049,11.412,5.568
	c0.51,4.169,2.36,8.204,5.552,11.396c3.117,3.119,7.104,5.052,11.413,5.572c0.511,4.17,2.363,8.206,5.558,11.399
	c3.684,3.683,8.58,5.711,13.787,5.711c5.205,0,10.102-2.027,13.789-5.712c10.091-10.095,14.174-23.956,12.253-37.099
	c5.237,1.609,10.741,2.448,16.376,2.448c0.001,0,0.001,0,0.001,0c0.209,0,0.414-0.013,0.622-0.015c0.035,0,0.069,0.005,0.105,0.005
	c0.103,0,0.202-0.011,0.304-0.016c14.434-0.262,27.966-5.99,38.201-16.226l38.183-38.184c10.483-10.482,16.257-24.417,16.258-39.238
	c0-5.627-0.836-11.124-2.441-16.355c2.08,0.302,4.196,0.458,6.336,0.458c11.543,0,22.399-4.467,30.594-12.58
	c0.055-0.051,0.108-0.104,0.161-0.156c3.683-3.684,5.71-8.58,5.709-13.788C229.88,48.223,227.851,43.326,224.169,39.647z
	 M56.609,213.57c-0.85,0.85-1.979,1.317-3.179,1.317c-1.201,0-2.331-0.468-3.182-1.318c-1.754-1.754-1.755-4.608-0.002-6.362
	c2.928-2.929,2.927-7.677-0.001-10.605c-1.465-1.464-3.384-2.196-5.304-2.196c-1.919,0-3.838,0.732-5.302,2.195
	c-0.851,0.85-1.98,1.318-3.181,1.318c-1.199,0-2.328-0.468-3.179-1.318c-1.75-1.75-1.751-4.599-0.005-6.355
	c0.001-0.001,0.002-0.002,0.003-0.003c0.001-0.001,0.003-0.003,0.004-0.004c2.927-2.93,2.926-7.677-0.003-10.604
	c-2.93-2.93-7.677-2.929-10.604-0.001c-0.851,0.85-1.98,1.318-3.183,1.318c-1.2,0-2.328-0.468-3.176-1.315
	c-1.74-1.741-1.756-4.562-0.047-6.317c0.015-0.015,0.03-0.03,0.046-0.046c5.382-5.382,12.537-8.347,20.149-8.347
	c7.609,0,14.765,2.964,20.147,8.346C67.72,184.38,67.719,202.458,56.609,213.57z M55.354,134.036
	c0-10.813,4.211-20.981,11.858-28.631L89.077,83.54v90.413c-8.239-1.38-15.834-5.262-21.859-11.288
	C59.568,155.018,55.355,144.85,55.354,134.036z M104.077,173.688V68.54l1.319-1.319c5.67-5.67,12.727-9.446,20.403-11.024
	l0.002,105.144l-1.327,1.327C118.806,168.337,111.753,172.111,104.077,173.688z M174.522,95.852
	c-0.001,10.815-4.214,20.983-11.864,28.632l-21.856,21.857l-0.002-90.41c8.236,1.38,15.828,5.259,21.854,11.279
	c0.003,0.004,0.006,0.007,0.01,0.011c0.003,0.003,0.006,0.006,0.01,0.009C170.314,74.878,174.522,85.042,174.522,95.852z
	 M213.651,56.523c-0.03,0.029-0.061,0.06-0.09,0.089c-5.381,5.38-12.534,8.343-20.145,8.343c-7.611,0-14.767-2.963-20.146-8.341
	c-11.107-11.111-11.107-29.188-0.001-40.295c0.033-0.032,0.065-0.066,0.098-0.1c0.838-0.788,1.927-1.22,3.082-1.22
	c1.201,0,2.33,0.467,3.178,1.314c1.754,1.755,1.756,4.608,0.002,6.361c-1.464,1.465-2.196,3.385-2.196,5.304
	c0,1.919,0.732,3.839,2.196,5.304c2.93,2.928,7.678,2.928,10.607,0c0.849-0.85,1.979-1.317,3.179-1.317
	c1.202,0,2.332,0.468,3.183,1.318c1.753,1.754,1.752,4.608-0.002,6.363c-1.465,1.465-2.196,3.384-2.196,5.304
	c0,1.919,0.733,3.839,2.197,5.303c2.93,2.928,7.679,2.928,10.606-0.001c0.851-0.851,1.979-1.318,3.18-1.318
	c1.2,0,2.329,0.468,3.182,1.32c0.849,0.849,1.316,1.978,1.316,3.178C214.881,54.593,214.445,55.686,213.651,56.523z"/>
<g>
</g>
<g>
</g>
<g>
</g>
<g>
</g>
<g>
</g>
<g>
</g>
<g>
</g>
<g>
</g>
<g>
</g>
<g>
</g>
<g>
</g>
<g>
</g>
<g>
</g>
<g>
</g>
<g>
</g>
</svg>
